<?xml version="1.0" standalone="no"?>
<!DOCTYPE svg PUBLIC "-//W3C//DTD SVG 20010904//EN"
 "http://www.w3.org/TR/2001/REC-SVG-20010904/DTD/svg10.dtd">
<svg version="1.0" xmlns="http://www.w3.org/2000/svg"
 width="2290.000000pt" height="1779.000000pt" viewBox="0 0 2290.000000 1779.000000"
 preserveAspectRatio="xMidYMid meet">
<style xmlns="http://www.w3.org/2000/svg">
  .a {
    fill: #333;
  }
  @media (prefers-color-scheme: dark) {
    .a {
      fill: #eee;
    }
  }
</style>
<g transform="translate(0.000000,1779.000000) scale(0.100000,-0.100000)" stroke="none">
<path class="a" d="M11440 17676 c-126 -28 -240 -141 -291 -289 -26 -75 -25 -212 2 -291
26 -78 84 -162 140 -204 53 -39 211 -168 243 -196 12 -12 46 -41 76 -66 29
-25 61 -52 69 -60 9 -9 41 -36 71 -60 65 -53 107 -89 129 -111 14 -14 173
-144 345 -284 166 -134 171 -142 99 -171 -21 -8 -47 -19 -58 -24 -71 -32 -175
-74 -205 -82 -19 -5 -51 -15 -70 -22 -19 -7 -69 -23 -110 -36 -41 -13 -91 -28
-110 -35 -110 -38 -210 -66 -375 -105 -49 -12 -108 -26 -130 -32 -97 -26 -376
-83 -460 -93 -27 -3 -84 -12 -125 -20 -145 -27 -266 -44 -355 -50 -49 -4 -137
-13 -195 -21 -215 -29 -997 -44 -1305 -24 -194 13 -467 36 -575 50 -171 21
-316 41 -365 51 -47 10 -127 23 -312 54 -45 7 -86 16 -91 19 -5 3 -33 10 -63
15 -30 6 -92 20 -139 31 -47 11 -109 25 -139 31 -29 5 -61 13 -70 18 -9 5 -34
11 -56 15 -22 4 -58 13 -80 20 -46 16 -116 36 -235 70 -95 28 -210 66 -380
126 -63 23 -127 45 -141 49 -14 5 -34 13 -45 19 -10 5 -44 20 -74 32 -30 13
-75 32 -100 43 -25 10 -54 23 -65 27 -11 5 -45 19 -75 32 -30 12 -74 35 -97
51 -45 30 -133 57 -187 57 -93 0 -175 -96 -234 -275 -39 -117 -107 -366 -157
-575 -40 -170 -56 -235 -80 -330 -8 -36 -20 -87 -25 -115 -17 -90 -38 -188
-60 -285 -12 -52 -28 -122 -35 -155 -36 -160 -42 -183 -79 -316 -9 -31 -16
-62 -16 -71 0 -8 -9 -46 -20 -84 -23 -75 -43 -147 -67 -234 -9 -30 -21 -73
-28 -95 -7 -22 -23 -74 -35 -115 -12 -41 -28 -90 -36 -108 -8 -18 -14 -40 -14
-48 0 -9 -6 -30 -14 -47 -8 -18 -26 -67 -41 -110 -14 -43 -30 -88 -35 -100 -5
-12 -25 -65 -45 -117 -44 -114 -43 -112 -133 -310 -62 -139 -67 -154 -66 -212
1 -69 22 -97 94 -129 38 -18 65 -20 180 -20 74 0 151 5 170 11 19 6 64 15 100
21 36 5 85 16 110 24 25 7 83 24 130 36 47 13 90 26 95 30 6 5 29 12 50 18 48
12 119 36 160 56 17 7 37 16 45 19 41 16 277 162 300 186 3 3 25 19 49 35 60
40 270 249 308 305 47 71 113 204 113 229 0 6 6 25 14 43 57 136 103 400 117
668 11 196 -3 639 -23 735 -5 28 -16 93 -23 145 -8 52 -20 125 -27 162 -8 45
-9 71 -2 78 9 9 141 -37 217 -76 16 -7 33 -14 38 -14 6 0 29 -8 52 -18 101
-44 182 -74 277 -102 41 -12 91 -28 110 -35 19 -7 89 -30 155 -50 66 -21 139
-44 163 -51 23 -8 52 -14 63 -14 11 0 29 -5 40 -10 10 -6 38 -14 61 -19 24 -5
115 -28 203 -51 88 -23 184 -47 214 -52 30 -5 58 -11 62 -13 4 -3 45 -12 91
-21 46 -8 115 -22 153 -30 39 -9 102 -22 140 -29 39 -8 86 -19 105 -25 19 -5
48 -10 65 -10 16 0 62 -6 100 -14 71 -15 133 -25 305 -51 53 -8 102 -16 110
-20 8 -3 56 -9 105 -14 113 -12 248 -28 395 -46 165 -21 331 -35 515 -45 88
-5 228 -14 310 -21 171 -13 990 -6 1113 11 40 5 130 14 200 20 146 11 326 33
492 60 183 30 210 32 216 15 6 -15 -2 -33 -79 -175 -169 -315 -245 -456 -307
-575 -17 -33 -56 -105 -85 -160 -30 -55 -68 -127 -85 -160 -69 -133 -151 -284
-217 -400 -12 -22 -29 -53 -37 -70 -9 -16 -31 -57 -50 -90 -20 -33 -42 -73
-50 -90 -9 -16 -31 -57 -50 -90 -20 -33 -42 -73 -50 -90 -9 -16 -31 -57 -51
-90 -19 -33 -39 -69 -44 -80 -5 -11 -30 -55 -55 -98 -25 -43 -46 -80 -46 -83
0 -3 -22 -43 -50 -90 -27 -47 -50 -86 -50 -88 0 -2 -31 -59 -70 -126 -38 -67
-70 -123 -70 -125 0 -4 -96 -173 -110 -195 -6 -8 -13 -22 -17 -30 -4 -8 -105
-183 -225 -388 -120 -204 -218 -374 -218 -377 0 -2 -13 -23 -29 -47 -16 -24
-42 -67 -57 -96 -16 -29 -34 -61 -39 -70 -6 -9 -21 -35 -33 -57 -12 -22 -31
-53 -42 -70 -11 -16 -26 -43 -34 -60 -8 -16 -52 -92 -98 -168 -192 -319 -254
-420 -268 -442 -8 -13 -46 -76 -85 -140 -38 -64 -77 -127 -85 -140 -8 -13 -46
-76 -85 -140 -38 -64 -77 -127 -85 -140 -8 -13 -52 -85 -98 -162 -156 -259
-175 -286 -207 -295 -16 -5 -73 -15 -125 -23 -52 -7 -120 -18 -150 -24 -30 -6
-109 -19 -175 -30 -164 -27 -248 -41 -330 -56 -38 -7 -99 -18 -135 -25 -36 -6
-92 -18 -125 -26 -33 -7 -85 -18 -115 -23 -90 -15 -337 -65 -420 -85 -30 -8
-98 -24 -150 -35 -52 -12 -122 -28 -155 -36 -183 -41 -423 -101 -560 -140 -27
-8 -86 -24 -130 -35 -170 -44 -409 -115 -495 -145 -19 -7 -69 -23 -110 -35
-110 -32 -156 -47 -245 -76 -105 -36 -253 -88 -288 -102 -16 -7 -33 -12 -39
-12 -5 0 -24 -6 -41 -14 -64 -27 -143 -56 -152 -56 -9 0 -177 -66 -230 -90
-11 -5 -45 -19 -75 -30 -30 -12 -73 -30 -96 -41 -23 -10 -46 -19 -52 -19 -6 0
-24 -7 -41 -15 -17 -8 -45 -22 -62 -30 -17 -8 -35 -15 -41 -15 -5 0 -49 -18
-96 -41 -152 -71 -205 -96 -297 -139 -121 -56 -505 -251 -647 -328 -37 -21
-91 -50 -120 -66 -29 -15 -60 -34 -69 -42 -8 -8 -18 -14 -22 -14 -11 0 -343
-196 -419 -247 -26 -18 -50 -33 -53 -33 -3 0 -28 -16 -55 -35 -27 -19 -52 -35
-55 -35 -6 0 -156 -103 -305 -208 -226 -161 -245 -175 -281 -206 -19 -17 -94
-77 -165 -133 -71 -57 -147 -119 -169 -139 -22 -20 -74 -66 -115 -102 -172
-150 -520 -518 -653 -690 -15 -20 -31 -39 -35 -42 -4 -3 -18 -21 -32 -40 -13
-19 -75 -106 -137 -192 -62 -87 -113 -160 -113 -163 0 -2 -29 -49 -63 -102
-97 -148 -239 -417 -306 -578 -23 -55 -48 -113 -55 -130 -36 -79 -46 -107 -46
-123 0 -9 -6 -29 -14 -44 -8 -15 -17 -42 -21 -60 -4 -18 -13 -46 -20 -63 -7
-16 -18 -52 -25 -80 -34 -139 -42 -176 -55 -240 -8 -38 -19 -104 -25 -145 -6
-41 -16 -106 -22 -145 -15 -93 -14 -544 2 -610 6 -27 16 -87 21 -131 5 -45 21
-126 35 -180 14 -55 30 -117 35 -139 6 -22 16 -54 24 -72 8 -17 15 -35 15 -40
0 -16 61 -158 108 -251 71 -141 71 -141 136 -237 145 -214 322 -408 516 -563
52 -42 105 -85 117 -95 21 -19 59 -43 197 -127 89 -55 283 -151 371 -185 39
-14 86 -33 105 -40 37 -15 143 -48 225 -70 28 -8 75 -21 105 -29 110 -30 323
-63 525 -82 393 -36 919 -10 1235 61 36 8 83 17 105 21 68 10 254 59 330 85
17 6 48 15 70 19 22 5 76 23 120 40 44 18 121 48 170 67 84 33 241 105 380
175 100 50 314 179 410 245 50 34 112 77 138 95 86 59 428 328 471 371 7 6 39
35 71 62 32 28 81 70 109 94 57 49 213 199 289 276 169 171 323 332 392 409
44 49 87 96 95 105 9 9 36 41 60 71 25 30 47 57 50 60 28 27 179 217 316 397
166 218 194 255 267 361 20 28 54 76 74 105 20 28 87 127 149 219 62 92 121
179 132 195 24 35 173 262 237 363 26 41 77 120 113 175 96 148 162 251 238
373 21 34 53 84 69 110 17 26 64 101 105 167 40 66 93 149 115 185 38 59 77
123 113 183 7 12 37 60 67 107 29 47 91 147 137 223 45 77 90 149 98 162 8 13
47 76 85 140 39 64 77 128 85 140 8 13 69 114 135 225 66 111 128 213 137 228
10 15 22 36 28 47 6 11 149 254 318 540 l308 520 54 18 c30 10 87 24 125 32
39 7 95 18 125 24 49 10 109 19 365 61 39 6 104 15 145 20 73 9 126 17 375 59
108 18 204 31 260 35 27 1 31 -34 12 -98 -72 -235 -154 -690 -192 -1056 -30
-297 -25 -819 9 -1055 36 -244 60 -377 86 -470 12 -44 27 -102 35 -130 24 -94
47 -170 55 -180 4 -5 13 -26 18 -45 14 -46 40 -120 52 -145 5 -11 25 -56 45
-100 63 -139 78 -168 138 -270 154 -265 263 -411 436 -584 120 -120 189 -183
247 -224 91 -66 213 -144 274 -175 154 -80 197 -101 225 -108 17 -4 35 -10 40
-14 6 -5 26 -13 45 -18 19 -6 62 -20 95 -32 33 -12 83 -26 110 -31 28 -6 70
-17 95 -24 47 -14 187 -37 330 -54 143 -18 407 -23 565 -12 182 12 444 39 455
46 4 3 43 10 86 15 44 6 106 17 139 25 33 8 103 24 155 36 52 12 113 27 135
34 22 8 74 23 115 35 41 12 91 28 110 35 19 8 62 23 95 35 33 13 72 29 87 36
14 8 31 14 37 14 7 0 42 14 79 31 37 17 92 42 122 56 78 35 125 59 205 104 39
21 81 43 94 49 12 6 46 26 75 44 28 19 83 54 123 78 105 63 261 170 403 277
159 119 252 197 505 420 112 99 558 555 666 681 63 74 122 142 130 150 8 8 43
51 79 95 35 44 67 82 70 85 37 32 571 726 670 870 17 25 55 79 85 120 30 41
71 100 93 130 21 30 55 79 75 108 76 107 195 283 334 492 78 118 156 235 173
260 41 59 100 151 100 155 0 1 31 49 68 106 67 102 116 177 137 211 36 59 83
134 130 208 119 189 146 237 138 256 -21 56 -123 171 -183 208 -81 50 -118 58
-288 63 -146 5 -165 4 -182 -12 -18 -16 -138 -212 -214 -349 -15 -28 -34 -58
-40 -66 -7 -8 -16 -22 -20 -30 -3 -8 -14 -27 -24 -42 -9 -14 -30 -48 -46 -75
-16 -26 -49 -79 -74 -118 -67 -105 -112 -176 -162 -257 -240 -386 -744 -1094
-1002 -1405 -183 -222 -216 -261 -249 -298 -20 -22 -80 -89 -134 -150 -303
-339 -734 -728 -1005 -906 -190 -125 -265 -171 -345 -211 -222 -113 -216 -110
-335 -158 -30 -12 -63 -26 -73 -31 -17 -9 -129 -45 -232 -74 -27 -8 -72 -21
-100 -30 -27 -8 -84 -19 -125 -25 -41 -5 -90 -14 -108 -19 -19 -6 -116 -15
-216 -21 -186 -12 -404 -3 -471 19 -16 6 -61 20 -100 32 -300 93 -545 348
-676 704 -12 33 -28 74 -35 92 -8 17 -14 41 -14 52 0 12 -6 37 -14 55 -7 18
-17 53 -20 77 -4 24 -13 71 -21 104 -14 64 -32 189 -45 320 -15 146 -11 721 5
810 8 44 14 102 15 129 0 46 14 140 45 301 8 39 19 97 25 130 26 134 30 152
45 208 8 31 22 85 31 120 34 140 97 356 129 447 7 19 23 69 35 110 12 41 26
84 31 95 11 25 37 99 50 142 5 18 16 45 24 60 8 15 15 33 15 40 0 7 6 27 14
45 8 18 21 51 29 73 27 70 58 149 73 183 30 69 43 99 65 157 13 33 29 69 36
80 7 11 13 25 13 32 0 7 16 48 36 90 20 43 46 101 59 128 22 48 53 116 117
255 16 36 41 88 55 115 42 82 181 352 246 475 33 63 91 176 130 250 120 230
138 264 158 295 10 17 26 44 36 62 20 35 178 298 205 341 9 15 23 37 30 49
172 294 359 590 415 658 5 6 25 35 45 65 35 52 140 203 237 342 25 35 73 105
109 157 35 51 112 154 170 228 59 74 163 205 232 292 69 86 157 197 195 246
119 151 126 157 154 152 14 -3 78 -24 141 -47 63 -22 135 -47 160 -55 25 -7
70 -21 100 -30 30 -9 75 -23 100 -31 331 -101 671 -183 952 -229 48 -7 104
-19 125 -24 21 -6 54 -11 73 -11 19 0 80 -6 135 -15 284 -42 671 -56 990 -35
161 11 378 36 435 50 19 5 62 11 95 15 60 6 120 19 250 56 39 11 95 27 125 35
102 28 155 46 195 64 22 10 100 44 174 75 117 50 367 187 456 249 233 165 466
384 611 576 81 108 92 124 118 175 9 17 31 57 50 90 44 75 86 161 86 174 0 5
7 22 15 38 25 48 75 186 84 233 17 88 33 155 43 190 6 19 13 137 15 261 5 202
3 237 -17 340 -23 122 -55 237 -76 278 -8 14 -14 32 -14 38 0 23 -98 202 -162
295 -56 83 -202 241 -298 324 -79 68 -365 234 -405 234 -5 0 -23 7 -39 15 -16
9 -46 20 -65 25 -20 5 -67 18 -106 30 -38 11 -99 25 -135 31 -36 5 -81 14
-100 19 -19 5 -128 15 -241 21 -178 11 -246 10 -497 -4 -160 -10 -337 -24
-394 -33 -203 -31 -344 -55 -380 -65 -20 -5 -69 -16 -110 -24 -91 -17 -235
-53 -343 -85 -110 -32 -300 -91 -335 -105 -19 -7 -62 -22 -95 -34 -33 -13 -75
-29 -93 -37 -18 -8 -37 -14 -43 -14 -6 0 -27 -7 -47 -16 -45 -20 -80 -35 -252
-109 -74 -32 -140 -62 -146 -66 -5 -5 -131 -69 -280 -144 -148 -75 -281 -144
-296 -153 -14 -9 -48 -30 -75 -45 -26 -15 -55 -32 -63 -37 -8 -5 -66 -40 -128
-77 -63 -37 -124 -75 -137 -83 -13 -8 -52 -32 -87 -53 -34 -20 -94 -60 -133
-88 -74 -53 -90 -64 -250 -174 -156 -107 -380 -274 -395 -294 -3 -4 -70 -58
-150 -121 -80 -63 -156 -125 -170 -137 -14 -13 -40 -33 -58 -44 l-32 -21 -43
22 c-23 11 -49 25 -57 30 -8 5 -71 41 -140 80 -69 39 -132 75 -140 80 -8 5
-33 19 -55 31 -53 28 -214 125 -350 209 -60 38 -146 90 -190 116 -44 26 -111
69 -150 95 -38 25 -123 81 -188 124 -65 42 -121 84 -124 93 -6 14 27 89 53
122 6 8 24 38 38 65 15 28 31 57 36 65 21 33 277 476 283 490 4 8 16 29 27 45
11 17 26 44 34 60 9 17 20 37 26 45 17 25 204 353 222 390 27 53 48 119 48
149 0 108 -92 209 -222 242 -198 50 -210 51 -418 53 -205 1 -334 -12 -495 -49
-33 -8 -76 -17 -95 -20 -55 -11 -248 -69 -297 -91 -17 -8 -36 -14 -42 -14 -6
0 -44 -15 -83 -34 -40 -19 -80 -37 -88 -40 -8 -4 -33 -17 -55 -31 -22 -13 -49
-29 -60 -34 -11 -6 -45 -28 -75 -50 -103 -75 -290 -199 -344 -228 -10 -6 -28
-8 -40 -5 -18 4 -234 167 -316 239 -14 11 -61 51 -105 88 -44 37 -94 79 -111
94 -38 32 -101 85 -224 187 -113 94 -128 106 -250 215 -444 395 -461 407 -585
435 -72 16 -102 16 -175 0z m9534 -2392 c144 -32 202 -47 243 -65 23 -11 46
-19 51 -19 9 0 54 -24 145 -78 107 -63 230 -196 275 -297 62 -137 78 -297 44
-430 -22 -87 -41 -138 -74 -200 -99 -186 -295 -378 -518 -507 -52 -30 -102
-58 -110 -62 -8 -3 -35 -18 -60 -32 -25 -14 -79 -37 -120 -50 -41 -14 -89 -31
-107 -39 -17 -8 -38 -15 -47 -15 -8 0 -30 -6 -48 -14 -40 -18 -149 -42 -244
-56 -40 -5 -84 -14 -98 -20 -15 -5 -98 -14 -184 -20 -86 -5 -204 -14 -262 -20
-58 -6 -123 -8 -145 -5 -22 3 -132 10 -245 15 -113 6 -250 17 -305 25 -155 22
-393 62 -470 78 -38 8 -104 22 -145 30 -73 14 -114 24 -215 52 -27 8 -84 24
-125 35 -207 58 -294 86 -297 97 -5 13 319 328 481 468 190 164 286 244 316
264 14 9 81 59 150 112 109 83 236 170 440 301 52 33 150 87 300 165 36 19 72
38 80 43 20 13 90 41 275 114 148 57 389 119 530 135 131 15 411 12 489 -5z
m-6549 -784 c117 -79 289 -187 439 -275 19 -11 106 -62 193 -113 87 -51 165
-97 173 -103 8 -5 22 -12 30 -16 8 -4 35 -19 60 -33 25 -15 81 -46 125 -69 72
-39 105 -64 105 -81 0 -6 -36 -44 -329 -350 -187 -195 -242 -254 -295 -320
-16 -19 -52 -62 -81 -95 -184 -209 -397 -465 -450 -539 -16 -22 -109 -144
-206 -271 -97 -126 -202 -268 -234 -315 -136 -198 -440 -650 -462 -686 -52
-85 -181 -301 -196 -327 -10 -18 -25 -44 -35 -59 -26 -40 -195 -327 -219 -373
-70 -130 -105 -197 -133 -250 -17 -33 -55 -105 -84 -160 -78 -144 -117 -224
-235 -477 -37 -80 -44 -89 -85 -108 -25 -11 -50 -20 -56 -20 -6 0 -50 -13 -98
-29 -48 -16 -127 -41 -177 -56 -49 -15 -99 -30 -110 -35 -11 -5 -60 -20 -110
-35 -49 -15 -130 -40 -180 -56 -102 -33 -197 -63 -270 -84 -131 -37 -203 -59
-238 -71 -36 -13 -87 -19 -87 -9 0 10 28 66 72 143 27 46 48 85 48 87 0 4 95
172 110 195 6 8 14 24 19 35 5 11 37 67 71 125 34 58 66 114 71 125 5 11 13
27 19 35 14 22 175 303 183 320 4 8 11 22 16 30 6 8 49 83 96 165 47 83 90
157 95 165 6 8 17 29 25 45 9 17 20 37 25 45 16 25 206 354 213 370 4 8 17 31
28 50 12 19 32 53 45 76 44 79 224 389 234 404 6 8 17 29 25 45 9 17 20 37 25
45 18 27 276 475 283 490 4 8 11 22 17 30 5 8 71 121 145 250 74 129 139 242
145 250 5 8 21 38 36 65 14 28 32 57 40 66 8 8 14 18 14 22 0 3 38 70 83 149
46 79 87 150 90 158 4 8 16 29 27 45 11 17 27 44 35 60 9 17 24 44 35 60 11
17 23 37 27 45 3 8 59 105 123 215 64 110 120 207 123 215 4 8 11 22 17 30 16
25 276 474 283 490 4 8 18 33 32 55 14 22 30 49 35 60 6 11 19 34 29 50 11 17
32 54 47 83 30 56 60 85 78 75 6 -3 43 -27 81 -53z m-6131 -7338 c2 -4 -26
-60 -64 -123 -38 -62 -75 -124 -82 -136 -39 -65 -185 -308 -198 -328 -8 -13
-53 -87 -100 -165 -47 -78 -92 -152 -100 -165 -8 -13 -46 -76 -85 -140 -38
-64 -77 -127 -85 -140 -8 -12 -31 -49 -50 -80 -19 -31 -42 -68 -50 -80 -8 -13
-43 -70 -78 -127 -144 -235 -169 -275 -196 -318 -16 -25 -45 -71 -65 -103 -37
-59 -61 -97 -222 -349 -52 -81 -99 -155 -104 -165 -6 -10 -19 -31 -30 -48
-232 -362 -475 -730 -554 -840 -27 -38 -69 -97 -91 -129 -72 -102 -85 -120
-95 -133 -5 -6 -26 -35 -45 -63 -97 -142 -492 -644 -602 -765 -30 -33 -119
-132 -197 -220 -185 -207 -625 -644 -781 -777 -30 -25 -66 -56 -80 -68 -67
-59 -242 -189 -360 -267 -181 -119 -174 -115 -390 -224 -52 -27 -102 -49 -111
-49 -8 0 -19 -4 -25 -9 -9 -10 -41 -22 -164 -64 -282 -95 -524 -133 -796 -124
-179 6 -327 20 -364 35 -14 5 -51 12 -82 16 -32 4 -60 11 -63 16 -3 4 -22 11
-42 14 -21 4 -54 13 -73 20 -19 8 -60 24 -90 36 -74 29 -110 46 -210 104 -80
46 -179 112 -190 125 -3 4 -30 26 -60 51 -97 80 -253 255 -306 343 -16 27 -37
61 -46 75 -18 29 -62 119 -83 167 -109 261 -147 577 -104 875 25 171 83 398
125 483 8 16 14 33 14 39 0 44 214 448 309 583 170 243 223 309 402 505 115
125 313 315 407 389 32 25 104 83 159 127 56 45 125 98 155 118 29 20 87 61
128 91 41 30 98 68 125 85 28 17 77 49 110 70 51 34 119 76 175 110 8 5 87 50
175 100 88 50 167 95 175 100 8 5 74 39 145 75 72 37 150 77 175 90 25 13 95
47 155 75 61 28 148 70 195 92 86 41 112 53 185 84 22 9 58 24 80 34 22 9 65
27 95 40 90 38 133 56 172 74 20 9 40 16 44 16 9 0 91 31 151 56 17 8 36 14
43 14 7 0 24 6 38 14 15 7 54 23 87 36 33 12 76 27 95 35 19 7 116 38 215 70
99 32 196 63 215 70 41 15 138 45 263 80 49 14 92 27 97 30 5 3 28 9 52 14 24
5 88 23 143 38 129 38 175 50 375 98 75 18 175 44 234 61 26 8 57 14 68 14 12
0 55 9 97 19 166 42 216 53 386 86 44 8 87 18 95 21 8 3 53 12 100 20 47 8
128 22 180 33 245 49 402 76 605 106 55 8 114 19 130 24 38 12 132 14 139 3z"/>
</g>
</svg>
